<?xml version="1.0" encoding="utf-8"?>
<!-- Svg Vector Icons : http://www.onlinewebfonts.com/icon -->
<!DOCTYPE svg PUBLIC "-//W3C//DTD SVG 1.1//EN" "http://www.w3.org/Graphics/SVG/1.1/DTD/svg11.dtd">
<svg version="1.1" xmlns="http://www.w3.org/2000/svg" xmlns:xlink="http://www.w3.org/1999/xlink" x="0px" y="0px" viewBox="0 0 1000 1000" enable-background="new 0 0 1000 1000" xml:space="preserve">
<metadata> Svg Vector Icons : http://www.onlinewebfonts.com/icon </metadata>
<g><g transform="translate(0.000000,511.000000) scale(0.100000,-0.100000)"><path d="M1514.9,4071.5c-26.8-11.5-68.9-38.3-93.8-61.3c-24.9-23-331.3-616.6-683.6-1321.3C67.3,1348.6,65.4,1346.7,122.8,1214.5c38.3-84.3,4685.7-5032.3,4756.5-5061c78.5-34.5,162.8-34.5,241.3,0c70.9,28.7,4718.2,4976.7,4756.5,5061c57.4,132.1,55.5,134-614.7,1474.4c-352.3,704.7-658.7,1298.3-683.6,1321.3c-24.9,23-70.8,49.8-99.6,61.3C8406.6,4100.2,1583.9,4098.3,1514.9,4071.5z M4406.4,3472.2c0-15.3-1074.2-1572.1-1087.6-1575.9c-11.5-3.8-1053.2,1518.5-1072.3,1568.3c-3.8,7.7,480.6,15.3,1076.2,15.3C3918.1,3479.8,4406.4,3476,4406.4,3472.2z M7753.6,3464.5c-19.2-49.8-1060.8-1572.1-1072.3-1568.3c-13.4,3.8-1087.6,1560.6-1087.6,1575.9c0,3.8,488.3,7.7,1083.8,7.7C7273,3479.8,7757.4,3472.2,7753.6,3464.5z M5553.4,2440c296.8-430.8,538.1-787,538.1-790.8c0-3.8-492.1-7.7-1093.4-7.7c-601.3,0-1089.6,7.7-1085.7,15.3c19.1,49.8,1080,1574,1091.5,1570.2C5011.5,3223.2,5258.5,2869,5553.4,2440z M2221.5,2405.6c273.8-407.9,499.8-746.8,499.8-752.5c0-5.7-409.8-11.5-909.6-11.5H902.2l386.8,775.5c296.8,593.6,392.5,769.8,409.8,750.6C1710.3,3156.2,1945.8,2811.5,2221.5,2405.6z M8712.9,2413.2l384.9-771.7h-917.2h-919.1l289.2,427c666.4,982.3,765.9,1125.9,771.7,1120.2C8324.2,3184.9,8500.4,2836.4,8712.9,2413.2z M3663.4-621.8c312.1-909.6,564.9-1654.5,561.1-1658.3c-1.9-3.8-576.4,605.1-1275.3,1350C2250.2-185.3,1549.4,561.6,1394.3,728.1L1109,1028.8h993.8h993.8L3663.4-621.8z M6244.7,1015.4c0-30.6-1233.2-3605.7-1244.7-3605.7c-11.5,0-1246.6,3575.1-1244.7,3605.7C3755.3,1032.6,6244.7,1032.6,6244.7,1015.4z M8605.7,728.1c-155.1-166.6-855.9-913.4-1554.9-1658.3c-698.9-744.9-1273.4-1353.8-1277.2-1350c-1.9,3.8,250.9,748.7,563,1658.3l566.8,1650.6h993.8H8891L8605.7,728.1z"/></g></g>
</svg>